<?xml version="1.0" encoding="UTF-8"?>
<svg viewBox="0 0 212 54" version="1.1" xmlns="http://www.w3.org/2000/svg" xmlns:xlink="http://www.w3.org/1999/xlink">
    <!-- Generator: Sketch 48.2 (47327) - http://www.bohemiancoding.com/sketch -->
    <title>Logo</title>
    <desc>Created with Sketch.</desc>
    <defs></defs>
    <g id="Page-1" stroke="none" stroke-width="1" fill="none" fill-rule="evenodd">
        <g id="Logo" fill="#FFFFFF">
            <g>
                <polygon id="S" fill-rule="nonzero" points="7.70064211 12.5173681 0.0454482117 14.2329096 11.4462597 0.159636737 12.6189538 1.06418983 3.82396109 11.8492594 9.18921202 10.6640865 9.18921202 38.518217 0.620237462 41.552355 0.620237462 33.1090258 2.10880737 33.1090258 2.10880737 39.4649637 7.70064211 37.4849837"></polygon>
                <polygon id="C" fill-rule="nonzero" transform="translate(19.165338, 26.065663) scale(-1, 1) translate(-19.165338, -26.065663) " points="16.374269 21.2286364 14.8856991 21.2286364 14.8856991 12.6573307 23.4449761 10.7026708 23.4449761 38.4092742 14.8856991 41.4286557 14.8856991 33.0243852 16.374269 33.0243852 16.374269 39.3438977 21.9564062 37.3747359 21.9564062 12.5500339 16.374269 13.8248121"></polygon>
                <polygon id="Path" fill-rule="nonzero" transform="translate(11.473694, 48.569158) scale(1, -1) translate(-11.473694, -48.569158) " points="2.99349595 53.601686 2.58864121 53.4831386 11.3739671 43.5350635 20.3587476 53.4815715 19.9566875 53.603253 11.3771701 44.0909187"></polygon>
                <polygon id="Path-2" fill-rule="nonzero" points="1.42654616 30.4556993 1.05440369 30.4556993 1.05440369 16.8301918 1.42654616 16.7078091"></polygon>
                <polygon id="Path-2-Copy" fill-rule="nonzero" points="22.9487861 30.5176918 22.5766436 30.5176918 22.5766436 25.7647698 22.9487861 25.7647698"></polygon>
                <polygon id="Path-3" fill-rule="nonzero" points="11.469373 53.1941021 11.1072706 53.2788092 8.25417825 41.5300741 8.61628072 41.3229844"></polygon>
                <polygon id="Path-4" fill-rule="nonzero" points="11.714958 53.0433851 11.3578756 53.1847609 14.7071579 41.6807912 15.0642403 41.9065633"></polygon>
                <polygon id="Path-5-Copy-3" fill-rule="nonzero" transform="translate(14.265462, 7.281768) scale(-1, 1) translate(-14.265462, -7.281768) " points="13.5132192 9.37005159 12.9765947 9.47687753 14.9639785 5.31586721 15.5543286 5.08665861"></polygon>
                <polygon id="Path-5-Copy-4" fill-rule="nonzero" points="9.29560449 9.37005159 8.75897993 9.47687753 10.7463638 5.31586721 11.3367138 5.08665861"></polygon>
                <ellipse id="Oval-2-Copy" cx="5.45808967" cy="14.8083015" rx="1" ry="1"></ellipse>
                <ellipse id="Oval-2-Copy-2" cx="22.5766436" cy="23.3750874" rx="1" ry="1"></ellipse>
                <ellipse id="Oval-Copy-3" cx="4.09356725" cy="17.0111893" rx="1" ry="1"></ellipse>
                <ellipse id="Oval-Copy-2" cx="19.1033138" cy="35.980501" rx="1" ry="1"></ellipse>
                <polygon id="Path-8" points="22.5766436 11.0144391 11.559912 0 10.6680844 1.15211219"></polygon>
                <path d="M2.85106233,8.32202065 L4.49208563,5.33814708 C3.36580557,5.60739897 2.80266555,5.74202492 2.80266555,5.74202492 C3.9289456,4.93885305 4.49208563,4.53726712 4.49208563,4.53726712 C2.82053513,2.75742924 1.98475988,1.86751029 1.98475988,1.86751029 C4.00352629,3.21910707 5.01290949,3.89490545 5.01290949,3.89490545 C5.68301882,2.66085521 6.01807348,2.0438301 6.01807348,2.0438301 C5.86289354,3.27788033 5.78530356,3.89490545 5.78530356,3.89490545 C7.63461917,2.35895151 8.55927698,1.59097454 8.55927698,1.59097454 C4.75380055,6.07833861 2.85106233,8.32202065 2.85106233,8.32202065 Z" id="Path-7"></path>
            </g>
            <g id="Signature" transform="translate(32.000000, 3.000000)" fill-rule="nonzero">
                <path d="M25.6036818,10.2232414 C25.6935049,10.3058186 26.1766928,10.468319 26.9494301,10.6347711 C28.0780647,10.8778857 29.5259627,11.1005564 32.6309331,11.5306107 C37.0894349,12.148136 38.2420542,12.3139277 40.430762,12.6749127 C45.3373901,13.484166 49.0436501,14.3552897 51.7015047,15.4354146 C55.137417,16.8317341 56.7588737,18.6016885 55.9747167,20.8348926 C55.6239079,21.8339623 54.2521753,22.2331157 51.5900531,22.416547 C49.6779453,22.5482991 47.8999591,22.3623404 42.329405,22.3270063 C34.0921177,22.274757 29.4116204,22.3352814 23.5286653,22.6863692 C15.4649646,23.1676014 0.0751082199,25.8637794 0.000271683335,25.5443801 C-0.0745648532,25.2249807 15.3295372,22.1842548 23.4559141,21.6992823 C29.3728756,21.346165 34.0746309,21.2853657 42.3371514,21.337775 C47.8683102,21.3728593 49.6384271,21.3610195 51.5061068,21.2323286 C52.6377248,21.1543554 53.4803854,21.0339388 54.0602427,20.8652091 C54.5583291,20.7202735 54.7965513,20.5614471 54.8368982,20.4465429 C55.3420633,19.0078811 54.1614042,17.7190938 51.2426432,16.5329392 C48.68968,15.4954411 45.0557501,14.6413179 40.2320966,13.8457497 C38.0579872,13.4871725 36.910068,13.3220568 32.4634247,12.706174 C29.3240407,12.2713533 27.8628646,12.0466405 26.6924223,11.7945203 C25.690133,11.5786213 25.0945744,11.3783297 24.7825289,11.0914564 C23.6624819,10.0617618 24.2106531,9.02076358 25.7265777,8.45373457 C26.8411606,8.03682668 28.6103436,7.75621599 30.7042392,7.6370797 C34.5307671,7.41936189 38.4404222,7.7566675 40.4053215,8.55243384 C40.7493504,7.24127032 40.9201096,6.22557249 40.9201096,5.51708291 C40.9201096,5.18927236 41.1896502,4.92352941 41.5221453,4.92352941 C41.8546403,4.92352941 42.1241809,5.18927236 42.1241809,5.51708291 C42.1241809,6.47905404 41.8717769,7.82649033 41.371013,9.57830841 C41.2588042,9.97084734 40.7877391,10.1374519 40.4480305,9.90474551 C39.1953166,9.04661432 34.8937307,8.58779252 30.7736108,8.82221481 C28.7917031,8.93497933 27.129609,9.19860462 26.1536886,9.56364601 C25.729695,9.7222401 25.4798437,9.88564439 25.4160474,9.99214268 C25.4348923,10.0421555 25.4935036,10.1219511 25.6036818,10.2232414 Z" id="Path-9"></path>
                <path d="M58.2733813,19.9729022 C58.2733813,19.6435021 58.5808535,19.3764706 58.9601397,19.3764706 C59.3394259,19.3764706 59.3394259,27 58.9601397,27 C58.5808535,27 58.2733813,26.7329685 58.2733813,26.4035684 L58.2733813,19.9729022 Z" id="Path-10"></path>
                <path d="M56.6748303,13.0935545 C56.3466575,13.0410211 56.1237291,12.7356157 56.1769058,12.4114125 C56.2300825,12.0872093 56.5392273,11.8669775 56.8674001,11.9195109 L67.1559752,13.5664914 C67.7513722,13.6618017 67.8506447,14.4667772 67.2958284,14.7005252 C59.9971568,17.5825415 56.3043492,18.9228476 56.2174055,18.7214434 C56.08699,18.419337 61.6553765,16.0811851 64.9114884,14.4120671 C62.9141412,14.1142579 60.1685885,13.6747537 56.6748303,13.0935545 Z" id="Path-11"></path>
                <path d="M70.6738127,16.7151369 C71.4139456,16.7731055 72.10769,16.9494671 72.7139067,17.2312153 C72.7288163,16.2301594 72.7950149,15.0304345 72.9103294,13.6240023 L69.7775591,16.7059591 C70.0699948,16.6885255 70.3699627,16.6913389 70.6738127,16.7151369 Z M70.5782754,17.9134189 C68.9885892,17.7889118 67.6278639,18.3775161 67.2965146,19.3331464 C67.0825062,19.9503591 68.1740591,20.5271987 70.1494373,20.6820459 C71.0518244,20.7527828 71.972136,20.7094828 72.6084375,20.5724964 C72.7746187,20.53672 72.9117837,20.4961387 73.0123967,20.4567307 C72.8641923,20.0401303 72.7715988,19.4337195 72.732383,18.6292375 C72.1726872,18.2327925 71.4259241,17.9798083 70.5782754,17.9134189 Z M73.8827597,21.3484357 C73.6380015,21.527175 73.2958415,21.6545547 72.8658597,21.7471236 C72.1047136,21.9109872 71.067538,21.9597856 70.053819,21.8803215 C68.9345609,21.7925844 67.9332463,21.5597199 67.2261894,21.1860702 C66.2730073,20.6823538 65.8211997,19.8895775 66.1495885,18.9424851 C66.4953326,17.9453393 67.5906013,17.2501166 68.7299845,16.9176828 C68.627039,16.761789 70.1285537,14.993045 73.2345286,11.6114509 C73.6373608,11.2151526 74.3196078,11.5355397 74.2653053,12.0955095 C74.0162209,14.6640793 73.9068212,16.6632647 73.9253352,18.049523 C74.4317725,18.5387101 74.7875166,19.1490894 74.9337676,19.8620699 C75.0004897,20.1873434 74.7885349,20.5046394 74.4603532,20.5707703 C74.4096599,20.5809854 74.3591585,20.5846101 74.3097536,20.5822378 C74.3105048,20.8780282 74.1517355,21.1520111 73.8827597,21.3484357 Z" id="Path-12"></path>
                <path d="M80.1339604,13.1074415 C79.3988458,13.6895206 78.7655756,15.638354 78.7318745,17.5317032 C78.6968322,19.5003961 79.2593238,20.5718896 80.1552508,20.4053067 C81.6628902,20.1249858 83.6856367,19.7665233 86.2240429,19.329807 C86.5489451,19.2739097 86.8584764,19.4872305 86.9154005,19.8062724 C86.9723245,20.1253143 86.7550853,20.4292626 86.4301831,20.4851599 C83.8966964,20.9210298 81.878944,21.2786073 80.3774787,21.5577802 C79.3610448,21.7467694 78.5500125,21.2920698 78.0704084,20.3784689 C77.6908395,19.6554259 77.517284,18.6503351 77.5375603,17.5112047 C77.5781097,15.2331133 78.3523612,12.903866 79.5004536,12.1080913 C79.9638787,11.7868784 80.4989421,11.8757375 80.9727183,12.2586947 C81.3248168,12.5432987 81.6849258,13.0137987 82.0751809,13.678926 C82.23985,13.9595782 82.1416481,14.3181747 81.8558408,14.4798737 C81.5700335,14.6415727 81.2048501,14.5451421 81.0401809,14.2644899 C80.7153267,13.7108279 80.4324125,13.3411866 80.2135737,13.1642974 C80.1836758,13.1401307 80.1569668,13.1212815 80.1339604,13.1074415 Z" id="Path-16"></path>
                <path d="M97.4413085,21.1005204 C97.7511533,20.9843016 98.097969,21.1375295 98.215943,21.4427645 C98.3339169,21.7479995 98.1783749,22.0896553 97.8685302,22.2058741 C96.3416485,22.7785879 94.3619018,23.2186026 92.6653275,23.3222577 C90.5111878,23.4538685 88.9031569,23.0691758 88.1485507,21.9883223 C88.1017008,21.9212173 88.0694261,21.8453025 88.0537493,21.7653358 C87.9024877,20.9937557 87.7877859,19.6672258 87.7088791,18.1761338 C85.20338,18.8969324 83.9175477,19.1534536 83.8513821,18.9456974 C83.7852165,18.7379413 85.0531103,18.13947 87.6550635,17.1502836 C87.6031135,15.7107136 87.5773801,14.0040423 87.5773801,12.0278257 C87.5773801,11.5204339 88.1834003,11.2486284 88.5718686,11.5817886 L93.3552311,15.684122 C93.7092033,15.9876976 93.588558,16.5560219 93.1407619,16.6944228 L88.892533,17.8103005 C88.9643116,19.308174 89.0695615,20.6399236 89.2075222,21.4074469 C90.2254924,22.5822794 94.2040146,22.3147879 97.4413085,21.1005204 Z M91.757748,15.8822618 L88.7820357,13.3302153 C88.7902299,14.6130673 88.81091,15.764228 88.8439079,16.782846 L91.757748,15.8822618 Z" id="Path-17"></path>
                <path d="M136.306992,18.671125 C141.171051,18.2809783 179.966603,16.5306853 179.999978,16.8570023 C180.033354,17.1833193 141.253881,19.4659535 136.404495,19.8549234 C120.521251,21.1289205 108.415897,23.1951333 100.053929,26.4790118 C99.502246,26.6956664 98.9996784,26.07653 99.3343479,25.5925268 C100.465337,23.9568756 105.685769,2.99088849 105.685769,0.593851129 C105.685769,0.265876207 105.955192,-1.31861439e-15 106.287541,0 C107.619899,5.27445757e-15 109.043726,2.15502372 110.981563,6.62752102 C111.112225,6.92908617 110.97042,7.27808108 110.664832,7.40702297 C110.359245,7.53596486 110.005595,7.39602606 109.874933,7.09446091 C108.982321,5.03432523 108.198927,3.4955013 107.531274,2.48497885 C107.261983,2.07739609 107.015134,1.76159415 106.795656,1.53931092 C106.173356,5.80877337 102.609269,20.1649159 100.927688,24.8783289 C109.354818,21.8281155 121.122175,19.8891013 136.306992,18.671125 Z" id="Path-18"></path>
                <path d="M116.555792,14.1680329 C116.563453,14.4918178 116.301391,14.7603731 115.970461,14.7678677 C115.639531,14.7753624 115.36505,14.5189585 115.35739,14.1951735 C115.329505,13.0164774 116.565452,11.5975335 119.227344,9.20996292 C119.673343,8.80992598 120.375336,9.23491004 120.208486,9.80394337 C120.036852,10.3892955 119.950145,10.7821264 119.912354,11.1583579 C119.835944,11.9190698 119.796802,11.6088279 120.424981,15.7377506 C120.481077,16.1064602 120.175934,16.4321303 119.795644,16.4094246 C115.907059,16.1772518 113.012362,16.2877744 111.138906,16.674229 C110.364992,16.8338711 109.80194,17.0347174 109.459626,17.252349 C109.236839,17.3939896 109.166349,17.4941686 109.166349,17.5416617 C109.166349,17.7875498 109.266604,17.8807798 109.690658,17.9643128 C110.157097,18.0561947 114.275569,18.2540346 114.275569,18.5779063 C114.275569,18.901778 114.007226,19.1643279 113.676207,19.1643279 C113.240725,19.1643279 112.858136,19.1719276 112.19695,19.190547 C110.557583,19.2367126 110.050869,19.231647 109.454063,19.1140845 C108.520331,18.9301521 107.967626,18.4161731 107.967626,17.5416617 C107.967626,15.6953059 111.86061,14.8327448 119.130903,15.1981472 C118.655515,12.0751023 118.630698,11.8925164 118.689313,11.3277641 C117.275413,12.7017091 116.543696,13.6567279 116.555792,14.1680329 Z" id="Path-19"></path>
                <path d="M126.200605,19.3764251 C125.847977,19.3500263 125.585235,19.064012 125.613753,18.7375944 C126.178552,12.2730311 126.178552,8.05171177 125.633016,6.14491061 C125.542445,5.82834082 125.74626,5.50374559 126.088249,5.41990687 C126.430238,5.33606815 126.780897,5.52473395 126.871468,5.84130374 C127.46751,7.92463669 126.553232,19.402824 126.200605,19.3764251 Z" id="Path-20"></path>
                <path d="M134.514388,15.6017296 C134.514388,15.9321452 134.246233,16.2 133.915447,16.2 C132.841136,16.2 131.046517,16.0963012 129.552215,15.9096294 C127.286187,15.6265517 125.805866,15.2115073 125.248803,14.4827601 C125.081238,14.2635526 125.085408,13.9583288 125.2589,13.7437707 C126.513562,12.1921201 128.29017,11.0849534 129.221675,11.0611468 C129.552353,11.0526956 129.83574,10.6071848 129.83574,11.6439192 C128.397073,12.6738662 127.076069,13.5190296 126.595241,14.0314134 C127.828994,14.611029 134.514388,15.271314 134.514388,15.6017296 Z" id="Path-21"></path>
                <path d="M144.534906,15.2321752 C144.665742,15.5269748 143.931389,16.0634594 143.629524,16.1912334 C141.754394,16.9849409 137.912804,17.253791 136.540519,16.7074898 C136.363445,16.6369975 136.231786,16.4877755 136.186572,16.3063264 C135.991109,15.5219216 135.859164,14.4753431 135.776445,13.263521 L134.712868,13.4192071 C134.387503,13.466834 134.084207,13.2478564 134.035439,12.930107 C133.986671,12.6123576 134.210897,12.3161617 134.536262,12.2685348 L135.713464,12.0962163 C135.677465,11.2212242 135.661622,10.2853718 135.661622,9.31789976 C135.661622,8.87355172 136.151088,8.5932422 136.548171,8.81018661 C138.042422,9.62656233 139.388227,10.5547566 140.584809,11.5948156 C140.962085,11.9227407 140.776547,12.5316076 140.277063,12.6047218 L136.959705,13.0903157 C137.02682,14.114565 137.128233,15.0121294 137.271213,15.7082735 C140.277063,16.7074898 144.404069,14.9373756 144.534906,15.2321752 Z M138.787368,11.6462592 C138.180878,11.184544 137.538302,10.7486918 136.859542,10.3387085 C136.866665,10.8828706 136.879781,11.4132594 136.8996,11.9225901 L138.787368,11.6462592 Z" id="Path-22"></path>
            </g>
            <path d="M43,35.2419355 L45.7312298,35.2419355 C46.0614782,35.2419355 46.4073413,35.2800175 46.7688294,35.3561828 C47.1303175,35.4323481 47.4605609,35.5645152 47.7595696,35.7526882 C48.0585783,35.9408612 48.3040295,36.1984751 48.4959306,36.5255376 C48.6878317,36.8526002 48.7837808,37.2625423 48.7837808,37.7553763 C48.7837808,38.185486 48.7056827,38.5573461 48.5494841,38.8709677 C48.3932856,39.1845894 48.1835364,39.4422033 47.9202302,39.6438172 C47.656924,39.8454311 47.3534571,39.9955192 47.0098203,40.094086 C46.6661834,40.1926528 46.3069321,40.2419355 45.9320555,40.2419355 L43.8836332,40.2419355 L43.8836332,44.7580645 L43,44.7580645 L43,35.2419355 Z M43.8836332,39.4354839 L45.8918904,39.4354839 C46.1418081,39.4354839 46.3872593,39.4063623 46.6282514,39.3481183 C46.8692435,39.2898743 47.0834554,39.1957892 47.2708937,39.0658602 C47.458332,38.9359313 47.6100654,38.7634419 47.7260987,38.5483871 C47.8421319,38.3333323 47.9001476,38.068998 47.9001476,37.7553763 C47.9001476,37.4507153 47.8399005,37.1908613 47.7194045,36.9758065 C47.5989084,36.7607516 47.4427122,36.5837821 47.2508111,36.4448925 C47.05891,36.3060029 46.8380039,36.2051974 46.5880862,36.1424731 C46.3381685,36.0797488 46.0882546,36.0483871 45.8383369,36.0483871 L43.8836332,36.0483871 L43.8836332,39.4354839 Z M58.0207962,39.4354839 L59.8951696,39.4354839 C60.3593025,39.4354839 60.7364048,39.3772407 61.0264878,39.2607527 C61.3165709,39.1442647 61.5419397,39.0008969 61.7026011,38.8306452 C61.8632625,38.6603934 61.9725998,38.4767035 62.0306165,38.2795699 C62.0886331,38.0824363 62.1176409,37.9032266 62.1176409,37.7419355 C62.1176409,37.5806444 62.0886331,37.4014347 62.0306165,37.2043011 C61.9725998,37.0071675 61.8632625,36.8234776 61.7026011,36.6532258 C61.5419397,36.4829741 61.3165709,36.3396063 61.0264878,36.2231183 C60.7364048,36.1066302 60.3593025,36.0483871 59.8951696,36.0483871 L58.0207962,36.0483871 L58.0207962,39.4354839 Z M57.137163,35.2419355 L59.627402,35.2419355 C59.7523608,35.2419355 59.9219453,35.2464157 60.1361605,35.2553763 C60.3503756,35.264337 60.5824386,35.2912184 60.8323563,35.3360215 C61.082274,35.3808246 61.3366507,35.4525085 61.5954941,35.5510753 C61.8543374,35.6496421 62.0864004,35.7930098 62.2916899,35.9811828 C62.4969794,36.1693558 62.6665639,36.4068086 62.8004484,36.6935484 C62.9343329,36.9802882 63.0012741,37.329747 63.0012741,37.7419355 C63.0012741,38.198927 62.923176,38.5752673 62.7669774,38.8709677 C62.6107789,39.1666681 62.4144179,39.4063611 62.1778886,39.5900538 C61.9413594,39.7737464 61.6802886,39.9103938 61.3946683,40 C61.1090481,40.0896062 60.8368204,40.1523296 60.5779771,40.188172 L63.3359836,44.7580645 L62.331855,44.7580645 L59.6675671,40.2419355 L58.0207962,40.2419355 L58.0207962,44.7580645 L57.137163,44.7580645 L57.137163,35.2419355 Z M70.9128397,40 C70.9128397,39.2741899 71.033334,38.6066339 71.274326,37.9973118 C71.5153181,37.3879898 71.8500243,36.8615614 72.2784546,36.4180108 C72.706885,35.9744601 73.2223325,35.6272414 73.8248127,35.3763441 C74.4272929,35.1254468 75.0900111,35 75.8129874,35 C76.5359636,35 77.1986818,35.1254468 77.801162,35.3763441 C78.4036422,35.6272414 78.9190897,35.9744601 79.3475201,36.4180108 C79.7759504,36.8615614 80.1106566,37.3879898 80.3516487,37.9973118 C80.5926408,38.6066339 80.713135,39.2741899 80.713135,40 C80.713135,40.7258101 80.5926408,41.3956063 80.3516487,42.0094086 C80.1106566,42.623211 79.7759504,43.1518795 79.3475201,43.5954301 C78.9190897,44.0389807 78.4036422,44.3839593 77.801162,44.6303763 C77.1986818,44.8767933 76.5359636,45 75.8129874,45 C75.0900111,45 74.4272929,44.8767933 73.8248127,44.6303763 C73.2223325,44.3839593 72.706885,44.0389807 72.2784546,43.5954301 C71.8500243,43.1518795 71.5153181,42.623211 71.274326,42.0094086 C71.033334,41.3956063 70.9128397,40.7258101 70.9128397,40 Z M71.7964729,40 C71.7964729,40.5914008 71.8901906,41.1424706 72.0776289,41.6532258 C72.2650672,42.163981 72.5328322,42.607525 72.8809318,42.983871 C73.2290315,43.3602169 73.6507613,43.6559129 74.1461339,43.8709677 C74.6415065,44.0860226 75.1971187,44.1935484 75.8129874,44.1935484 C76.428856,44.1935484 76.9844683,44.0860226 77.4798409,43.8709677 C77.9752135,43.6559129 78.3969433,43.3602169 78.7450429,42.983871 C79.0931426,42.607525 79.3609075,42.163981 79.5483458,41.6532258 C79.7357841,41.1424706 79.8295018,40.5914008 79.8295018,40 C79.8295018,39.4085992 79.7357841,38.8575294 79.5483458,38.3467742 C79.3609075,37.836019 79.0931426,37.392475 78.7450429,37.016129 C78.3969433,36.6397831 77.9752135,36.3440871 77.4798409,36.1290323 C76.9844683,35.9139774 76.428856,35.8064516 75.8129874,35.8064516 C75.1971187,35.8064516 74.6415065,35.9139774 74.1461339,36.1290323 C73.6507613,36.3440871 73.2290315,36.6397831 72.8809318,37.016129 C72.5328322,37.392475 72.2650672,37.836019 72.0776289,38.3467742 C71.8901906,38.8575294 71.7964729,39.4085992 71.7964729,40 Z M89.0263521,35.2419355 L91.9584076,35.2419355 C92.7795658,35.2419355 93.4757547,35.3427409 94.0469951,35.5443548 C94.6182356,35.7459688 95.0935184,36.0035827 95.4728577,36.3172043 C95.8521971,36.6308259 96.1512013,36.9780447 96.3698793,37.358871 C96.5885573,37.7396972 96.7492163,38.104837 96.851861,38.4543011 C96.9545058,38.8037652 97.0192157,39.1196222 97.0459926,39.4018817 C97.0727695,39.6841412 97.0861577,39.883512 97.0861577,40 C97.0861577,40.116488 97.0727695,40.3158588 97.0459926,40.5981183 C97.0192157,40.8803778 96.9545058,41.1962348 96.851861,41.5456989 C96.7492163,41.895163 96.5885573,42.2603028 96.3698793,42.641129 C96.1512013,43.0219553 95.8521971,43.3691741 95.4728577,43.6827957 C95.0935184,43.9964173 94.6182356,44.2540312 94.0469951,44.4556452 C93.4757547,44.6572591 92.7795658,44.7580645 91.9584076,44.7580645 L89.0263521,44.7580645 L89.0263521,35.2419355 Z M89.9099852,43.9516129 L91.7308051,43.9516129 C92.3555994,43.9516129 92.9402195,43.8732087 93.4846831,43.7163978 C94.0291467,43.559587 94.5021981,43.3198941 94.9038515,42.9973118 C95.305505,42.6747296 95.6223602,42.2647874 95.8544266,41.7674731 C96.0864931,41.2701588 96.2025245,40.681007 96.2025245,40 C96.2025245,39.318993 96.0864931,38.7298412 95.8544266,38.2325269 C95.6223602,37.7352126 95.305505,37.3252704 94.9038515,37.0026882 C94.5021981,36.6801059 94.0291467,36.440413 93.4846831,36.2836022 C92.9402195,36.1267913 92.3555994,36.0483871 91.7308051,36.0483871 L89.9099852,36.0483871 L89.9099852,43.9516129 Z M112.254226,41.1155914 C112.254226,41.6263466 112.19621,42.114693 112.080177,42.5806452 C111.964144,43.0465973 111.770014,43.4587796 111.497783,43.8172043 C111.225551,44.175629 110.868531,44.4623645 110.426712,44.6774194 C109.984893,44.8924742 109.442669,45 108.800024,45 C108.157378,45 107.615154,44.8924742 107.173335,44.6774194 C106.731517,44.4623645 106.374497,44.175629 106.102265,43.8172043 C105.830033,43.4587796 105.635903,43.0465973 105.51987,42.5806452 C105.403837,42.114693 105.345821,41.6263466 105.345821,41.1155914 L105.345821,35.2419355 L106.229454,35.2419355 L106.229454,40.8870968 C106.229454,41.2276003 106.260694,41.5904999 106.323173,41.9758065 C106.385653,42.361113 106.508378,42.7195324 106.691354,43.0510753 C106.874329,43.3826181 107.133169,43.6559129 107.46788,43.8709677 C107.802591,44.0860226 108.246634,44.1935484 108.800024,44.1935484 C109.353413,44.1935484 109.797456,44.0860226 110.132168,43.8709677 C110.466879,43.6559129 110.725718,43.3826181 110.908694,43.0510753 C111.091669,42.7195324 111.214395,42.361113 111.276874,41.9758065 C111.339354,41.5904999 111.370593,41.2276003 111.370593,40.8870968 L111.370593,35.2419355 L112.254226,35.2419355 L112.254226,41.1155914 Z M128.935182,43.266129 C128.479974,43.8844117 127.95337,44.3279556 127.355353,44.5967742 C126.757335,44.8655927 126.110237,45 125.414037,45 C124.691061,45 124.028343,44.8767933 123.425863,44.6303763 C122.823382,44.3839593 122.307935,44.0389807 121.879505,43.5954301 C121.451074,43.1518795 121.116368,42.623211 120.875376,42.0094086 C120.634384,41.3956063 120.51389,40.7258101 120.51389,40 C120.51389,39.2741899 120.634384,38.6066339 120.875376,37.9973118 C121.116368,37.3879898 121.451074,36.8615614 121.879505,36.4180108 C122.307935,35.9744601 122.823382,35.6272414 123.425863,35.3763441 C124.028343,35.1254468 124.691061,35 125.414037,35 C126.056683,35 126.656923,35.1142462 127.214775,35.3427419 C127.772627,35.5712377 128.261298,35.9542984 128.680802,36.4919355 L127.95783,37.0967742 C127.663284,36.6487433 127.286182,36.3216856 126.826512,36.1155914 C126.366841,35.9094972 125.896021,35.8064516 125.414037,35.8064516 C124.798169,35.8064516 124.242556,35.9139774 123.747184,36.1290323 C123.251811,36.3440871 122.830081,36.6397831 122.481982,37.016129 C122.133882,37.392475 121.866117,37.836019 121.678679,38.3467742 C121.491241,38.8575294 121.397523,39.4085992 121.397523,40 C121.397523,40.5914008 121.491241,41.1424706 121.678679,41.6532258 C121.866117,42.163981 122.133882,42.607525 122.481982,42.983871 C122.830081,43.3602169 123.251811,43.6559129 123.747184,43.8709677 C124.242556,44.0860226 124.798169,44.1935484 125.414037,44.1935484 C125.655029,44.1935484 125.904943,44.1644268 126.163787,44.1061828 C126.42263,44.0479388 126.674775,43.9583339 126.92023,43.8373656 C127.165685,43.7163972 127.399979,43.564069 127.62312,43.3803763 C127.846261,43.1966837 128.042622,42.9749117 128.212209,42.7150538 L128.935182,43.266129 Z M139.109384,36.0483871 L135.869395,36.0483871 L135.869395,35.2419355 L143.233005,35.2419355 L143.233005,36.0483871 L139.993017,36.0483871 L139.993017,44.7580645 L139.109384,44.7580645 L139.109384,36.0483871 Z M151.144571,35.2419355 L152.028204,35.2419355 L152.028204,44.7580645 L151.144571,44.7580645 L151.144571,35.2419355 Z M160.461917,40 C160.461917,39.2741899 160.582411,38.6066339 160.823403,37.9973118 C161.064395,37.3879898 161.399101,36.8615614 161.827531,36.4180108 C162.255962,35.9744601 162.771409,35.6272414 163.373889,35.3763441 C163.97637,35.1254468 164.639088,35 165.362064,35 C166.08504,35 166.747759,35.1254468 167.350239,35.3763441 C167.952719,35.6272414 168.468167,35.9744601 168.896597,36.4180108 C169.325027,36.8615614 169.659733,37.3879898 169.900725,37.9973118 C170.141718,38.6066339 170.262212,39.2741899 170.262212,40 C170.262212,40.7258101 170.141718,41.3956063 169.900725,42.0094086 C169.659733,42.623211 169.325027,43.1518795 168.896597,43.5954301 C168.468167,44.0389807 167.952719,44.3839593 167.350239,44.6303763 C166.747759,44.8767933 166.08504,45 165.362064,45 C164.639088,45 163.97637,44.8767933 163.373889,44.6303763 C162.771409,44.3839593 162.255962,44.0389807 161.827531,43.5954301 C161.399101,43.1518795 161.064395,42.623211 160.823403,42.0094086 C160.582411,41.3956063 160.461917,40.7258101 160.461917,40 Z M161.34555,40 C161.34555,40.5914008 161.439267,41.1424706 161.626706,41.6532258 C161.814144,42.163981 162.081909,42.607525 162.430009,42.983871 C162.778108,43.3602169 163.199838,43.6559129 163.695211,43.8709677 C164.190583,44.0860226 164.746196,44.1935484 165.362064,44.1935484 C165.977933,44.1935484 166.533545,44.0860226 167.028918,43.8709677 C167.52429,43.6559129 167.94602,43.3602169 168.29412,42.983871 C168.642219,42.607525 168.909984,42.163981 169.097423,41.6532258 C169.284861,41.1424706 169.378579,40.5914008 169.378579,40 C169.378579,39.4085992 169.284861,38.8575294 169.097423,38.3467742 C168.909984,37.836019 168.642219,37.392475 168.29412,37.016129 C167.94602,36.6397831 167.52429,36.3440871 167.028918,36.1290323 C166.533545,35.9139774 165.977933,35.8064516 165.362064,35.8064516 C164.746196,35.8064516 164.190583,35.9139774 163.695211,36.1290323 C163.199838,36.3440871 162.778108,36.6397831 162.430009,37.016129 C162.081909,37.392475 161.814144,37.836019 161.626706,38.3467742 C161.439267,38.8575294 161.34555,39.4085992 161.34555,40 Z M178.695924,35.2419355 L179.833937,35.2419355 L185.604329,43.5752688 L185.631106,43.5752688 L185.631106,35.2419355 L186.514739,35.2419355 L186.514739,44.7580645 L185.376727,44.7580645 L179.606334,36.4247312 L179.579557,36.4247312 L179.579557,44.7580645 L178.695924,44.7580645 L178.695924,35.2419355 Z M195.818696,42.9973118 C196.050763,43.4005397 196.351998,43.7007159 196.722412,43.8978495 C197.092826,44.0949831 197.514556,44.1935484 197.987614,44.1935484 C198.28216,44.1935484 198.55885,44.148746 198.817694,44.0591398 C199.076537,43.9695336 199.301906,43.8440868 199.493807,43.6827957 C199.685708,43.5215046 199.837442,43.326614 199.949012,43.0981183 C200.060582,42.8696225 200.116367,42.6120086 200.116367,42.3252688 C200.116367,41.9937259 200.047194,41.7204312 199.908847,41.5053763 C199.7705,41.2903215 199.585296,41.1133519 199.353229,40.9744624 C199.121163,40.8355728 198.860092,40.7168464 198.570009,40.6182796 C198.279926,40.5197128 197.980922,40.4211474 197.672987,40.3225806 C197.365053,40.2240138 197.066049,40.1120078 196.775966,39.9865591 C196.485883,39.8611105 196.224812,39.6975817 195.992745,39.4959677 C195.760679,39.2943538 195.575475,39.0412202 195.437127,38.7365591 C195.29878,38.4318981 195.229608,38.0555578 195.229608,37.6075269 C195.229608,37.1863778 195.312168,36.8122776 195.477293,36.4852151 C195.642417,36.1581525 195.865554,35.8848577 196.146712,35.6653226 C196.427869,35.4457874 196.751418,35.2800185 197.117369,35.1680108 C197.48332,35.056003 197.867117,35 198.26877,35 C198.786457,35 199.266202,35.091845 199.708021,35.2755376 C200.14984,35.4592303 200.531405,35.7661269 200.852728,36.1962366 L200.08959,36.7473118 C199.866449,36.4336902 199.605378,36.1984775 199.30637,36.0416667 C199.007361,35.8848558 198.652572,35.8064516 198.241993,35.8064516 C197.956373,35.8064516 197.684145,35.8445337 197.425302,35.9206989 C197.166459,35.9968642 196.94109,36.1088702 196.749189,36.2567204 C196.557288,36.4045706 196.403323,36.5905007 196.28729,36.8145161 C196.171256,37.0385316 196.113241,37.3028659 196.113241,37.6075269 C196.113241,38.0824397 196.233735,38.4475794 196.474727,38.702957 C196.715719,38.9583346 197.016955,39.1599455 197.378443,39.3077957 C197.739931,39.4556459 198.132653,39.5855729 198.55662,39.6975806 C198.980588,39.8095884 199.37331,39.9596765 199.734798,40.1478495 C200.096286,40.3360224 200.397522,40.5981166 200.638514,40.9341398 C200.879506,41.270163 201,41.733868 201,42.3252688 C201,42.7553785 200.919671,43.1361991 200.759009,43.4677419 C200.598348,43.7992848 200.381904,44.0792999 200.109673,44.3077957 C199.837441,44.5362915 199.522817,44.7087808 199.165792,44.8252688 C198.808766,44.9417569 198.438358,45 198.054556,45 C197.429762,45 196.854067,44.8902341 196.327455,44.6706989 C195.800843,44.4511638 195.350105,44.0815438 194.975228,43.561828 L195.818696,42.9973118 Z" id="PRODUCTIONS"></path>
        </g>
    </g>
</svg>