<?xml version="1.0" encoding="UTF-8"?>
<svg width="1388px" height="490px" viewBox="0 0 1388 490" version="1.1" xmlns="http://www.w3.org/2000/svg" xmlns:xlink="http://www.w3.org/1999/xlink" style="background: #000000;">
    <!-- Generator: Sketch 48.2 (47327) - http://www.bohemiancoding.com/sketch -->
    <title>SpaceCake Productions Logo Aternate</title>
    <desc>Created with Sketch.</desc>
    <defs></defs>
    <g id="Page-1" stroke="none" stroke-width="1" fill="none" fill-rule="evenodd">
        <g id="SpaceCake-Productions-Logo-Aternate" fill="#FFFFFF">
            <g id="Logo" transform="translate(624.000000, 23.000000)">
                <polygon id="S" fill-rule="nonzero" points="47.4891524 79.2196909 0 90.0784091 70.7251682 1 78 6.72547347 23.4400822 74.9908195 56.7235264 67.4891302 56.7235264 243.795073 3.56571691 263 3.56571691 209.556971 12.8000909 209.556971 12.8000909 249.787615 47.4891524 237.255103"></polygon>
                <polygon id="C" fill-rule="nonzero" transform="translate(119.500000, 165.000000) scale(-1, 1) translate(-119.500000, -165.000000) " points="102.217391 134.459622 93 134.459622 93 80.3414763 146 68 146 242.936006 93 262 93 208.936494 102.217391 208.936494 102.217391 248.837101 136.782609 236.404061 136.782609 79.6640181 102.217391 87.712807"></polygon>
                <polygon id="Path" fill-rule="nonzero" transform="translate(71.500000, 307.000000) scale(1, -1) translate(-71.500000, -307.000000) " points="18.5289031 338.990039 16 338.236474 70.8770591 275 127 338.226513 124.488553 339 70.897066 278.533379"></polygon>
                <polygon id="Path-2" fill-rule="nonzero" points="9 193 7 193 7 106.774467 9 106"></polygon>
                <polygon id="Path-2-Copy" fill-rule="nonzero" points="143 193 141 193 141 163 143 163"></polygon>
                <polygon id="Path-3" fill-rule="nonzero" points="71 336.46154 68.747555 337 51 262.316414 53.252445 261"></polygon>
                <polygon id="Path-4" fill-rule="nonzero" points="73.2158896 336.10288 71 337 91.7841104 264 94 265.432668"></polygon>
                <polygon id="Path-5-Copy-3" fill-rule="nonzero" transform="translate(89.000000, 46.000000) scale(-1, 1) translate(-89.000000, -46.000000) " points="84.3308298 59.318684 81 60 93.3356959 33.4618498 97 32"></polygon>
                <polygon id="Path-5-Copy-4" fill-rule="nonzero" points="58.3308298 59.318684 55 60 67.3356959 33.4618498 71 32"></polygon>
                <circle id="Oval-2-Copy" cx="34" cy="94" r="4"></circle>
                <circle id="Oval-2-Copy-2" cx="141" cy="148" r="4"></circle>
                <circle id="Oval-Copy-3" cx="25.5" cy="107.5" r="5.5"></circle>
                <circle id="Oval-Copy-2" cx="119.5" cy="227.5" r="5.5"></circle>
                <polygon id="Path-8" points="141 70 72.5418328 0 67 7.32201182"></polygon>
                <path d="M17.4024349,53 L27.6361835,33.9380947 C20.6124764,35.6581589 17.1006229,36.518191 17.1006229,36.518191 C24.1243299,31.3872812 27.6361835,28.8218264 27.6361835,28.8218264 C17.2120612,17.4516726 12,11.7665958 12,11.7665958 C24.58943,20.4010131 30.884145,24.7182218 30.884145,24.7182218 C35.0630804,16.834728 37.1525481,12.8929811 37.1525481,12.8929811 C36.184815,20.7764749 35.7009485,24.7182218 35.7009485,24.7182218 C47.2336495,14.9060739 53,10 53,10 C29.2682899,38.6666667 17.4024349,53 17.4024349,53 Z" id="Path-7"></path>
            </g>
            <g id="Signature" transform="translate(58.000000, 165.000000)" fill-rule="nonzero">
                <g id="CAke" transform="translate(736.000000, 0.000000)">
                    <path d="M248.355112,117.558935 C280.933364,115.102456 540.776317,104.082093 540.999856,106.136681 C541.223395,108.19127 281.488143,122.563411 249.008159,125.012481 C142.626145,133.033944 61.5475009,146.043432 5.54111617,166.719704 C1.84608278,168.083826 -1.51998982,164.18556 0.721543162,161.138132 C8.29662919,150.839587 43.2617823,18.8315201 43.2617823,3.73906266 C43.2617823,1.67403537 45.0663066,-8.30238691e-15 47.2923,0 C56.2161041,3.32095477e-14 65.7525421,13.5686679 78.7316913,41.7288361 C79.6068308,43.6275796 78.6570544,45.824955 76.6103062,46.6368113 C74.5635581,47.4486676 72.1949002,46.5675715 71.3197607,44.668828 C65.3412644,31.6976033 60.0942874,22.0087119 55.6225108,15.6461631 C53.8188705,13.0799013 52.165535,11.0915187 50.6955269,9.69195767 C46.5275165,36.5737582 22.6561525,126.964286 11.3933393,156.64133 C67.8361593,137.436283 146.650984,125.227675 248.355112,117.558935 Z" id="Path-18"></path>
                    <path d="M116.190002,89.2061328 C116.241011,91.244779 114.495899,92.9356822 112.292184,92.9828709 C110.08847,93.0300596 108.260655,91.4156643 108.209645,89.3770182 C108.023952,81.9555983 116.254328,73.0215075 133.980297,57.9886554 C136.950279,55.4699043 141.624962,58.1457299 140.513884,61.7285323 C139.370943,65.4140827 138.793551,67.8874623 138.541894,70.2563274 C138.033062,75.0459953 137.772411,73.0926199 141.955558,99.0895405 C142.32911,101.411046 140.297117,103.461561 137.764701,103.318599 C111.869979,101.856771 92.5937198,102.552654 80.1180683,104.985886 C74.9644514,105.99104 71.214996,107.255628 68.935473,108.625901 C67.4518969,109.517712 66.9824942,110.148469 66.9824942,110.447499 C66.9824942,111.995684 67.6501061,112.582688 70.4739547,113.108636 C73.5800438,113.687152 101.005623,114.93281 101.005623,116.972003 C101.005623,119.011195 99.2186804,120.664287 97.0143755,120.664287 C94.1144286,120.664287 91.5667048,120.712137 87.163759,120.82937 C76.2469476,121.120042 72.8726574,121.088148 68.8984301,120.347939 C62.6805546,119.189846 59,115.953683 59,110.447499 C59,98.8222961 84.9240159,93.391356 133.338081,95.6920378 C130.172396,76.0284221 130.007133,74.8788068 130.397464,71.3229591 C120.982069,79.9737241 116.10945,85.9868056 116.190002,89.2061328 Z" id="Path-19"></path>
                    <path d="M181.043656,121.999714 C178.62315,121.833499 176.819636,120.032668 177.015393,117.977446 C180.892283,77.27464 180.892283,50.695963 177.147617,38.6901779 C176.525922,36.6969607 177.924948,34.653213 180.272428,34.1253395 C182.619909,33.5974661 185.026901,34.7853619 185.648595,36.7785791 C189.739943,49.8958606 183.464162,122.165929 181.043656,121.999714 Z" id="Path-20"></path>
                    <path d="M236,98.2331125 C236,100.313507 234.200585,102 231.980895,102 C224.771897,102 212.729384,101.347082 202.702102,100.17174 C187.496277,98.3893994 177.562808,95.7761571 173.824725,91.1877487 C172.700308,89.8075531 172.728292,87.885774 173.892479,86.5348528 C182.311698,76.7652004 194.23335,69.7941512 200.484069,69.6442577 C202.703034,69.5910465 204.604658,66.7859785 204.604658,73.3135654 C194.950701,79.7984166 186.08631,85.1198161 182.859792,88.345936 C191.138695,91.9953677 236,96.1527181 236,98.2331125 Z" id="Path-21"></path>
                    <path d="M302.897185,95.9062885 C303.767638,97.7624342 298.881993,101.1403 296.873686,101.944803 C284.398462,106.94222 258.8404,108.634981 249.710597,105.195306 C248.532527,104.751466 247.656602,103.81192 247.355789,102.669462 C246.055375,97.7306172 245.177552,91.1410489 244.627219,83.5110582 L237.551249,84.4913041 C235.386598,84.7911768 233.368778,83.4124291 233.044322,81.4117848 C232.719867,79.4111405 234.21164,77.546203 236.376292,77.2463302 L244.208208,76.1613619 C243.968709,70.6521523 243.863303,64.7597481 243.863303,58.6682577 C243.863303,55.8705108 247.119714,54.105599 249.761507,55.4715453 C259.702743,60.6116887 268.656376,66.455875 276.617223,73.0043944 C279.127237,75.0691083 277.892855,78.9027144 274.569797,79.3630632 L252.499439,82.4205065 C252.945958,88.8694834 253.620651,94.520815 254.571898,98.9039444 C274.569797,105.195306 302.026731,94.0501428 302.897185,95.9062885 Z M264.658865,73.3282984 C260.623892,70.4212028 256.348837,67.6769485 251.833053,65.0955718 C251.880443,68.5217777 251.967705,71.8612626 252.099558,75.0681601 L264.658865,73.3282984 Z" id="Path-22"></path>
                </g>
                <g id="Space" transform="translate(0.000000, 31.000000)">
                    <path d="M143.131386,33.3685571 C143.633521,33.8884876 146.33467,34.9116379 150.654477,35.9596701 C156.963844,37.4903913 165.057979,38.8923923 182.415588,41.6001414 C207.339798,45.4882635 213.783246,46.5321377 226.018705,48.805006 C253.44806,53.9003042 274.167039,59.3851576 289.025152,66.1859436 C308.232815,74.9775852 317.297189,86.1217427 312.913543,100.182657 C310.952428,106.473096 303.284079,108.986284 288.402108,110.141222 C277.712917,110.970772 267.773502,109.799921 236.632624,109.577447 C190.583999,109.24847 164.418775,109.62955 131.531492,111.840103 C86.4532625,114.870083 0.419874911,131.846019 0.00151878205,129.834986 C-0.416837347,127.823953 85.6961874,108.678642 131.124793,105.625111 C164.202181,103.40178 190.486243,103.018969 236.675928,103.348954 C267.596576,103.569855 277.492,103.495308 287.932826,102.685032 C294.258871,102.19409 298.969568,101.435911 302.211124,100.373539 C304.995559,99.4609813 306.327285,98.4609632 306.552835,97.7374923 C309.376842,88.6792514 302.776644,80.5646646 286.459994,73.0962839 C272.188251,66.5638887 251.873617,61.1860759 224.908112,56.1769428 C212.754263,53.9192343 206.33709,52.8796168 181.479172,49.0018361 C163.929181,46.264076 155.760818,44.8492178 149.217735,43.2617945 C143.614671,41.9024302 140.28534,40.6413349 138.540923,38.8350959 C132.279562,32.3518338 135.343986,25.7974003 143.818407,22.2272176 C150.049221,19.6022421 159.939425,17.835434 171.644857,17.0853166 C193.036166,15.7145008 214.892176,17.8382769 225.876486,22.8486575 C227.799699,14.5931835 228.754288,8.19804903 228.754288,3.73718867 C228.754288,1.67319636 230.261091,1.32771613e-14 232.119827,0 C233.978563,-1.32771613e-14 235.485366,1.67319636 235.485366,3.73718867 C235.485366,9.79404395 234.074361,18.2779021 231.274958,29.3078678 C230.647681,31.7794092 228.014302,32.8284011 226.11524,31.3632124 C219.112237,25.9601642 195.065228,23.0712862 172.032663,24.5472784 C160.953272,25.2572773 151.661725,26.9171402 146.20607,29.215549 C143.835833,30.2141043 142.439098,31.2429461 142.08246,31.913491 C142.187808,32.2283867 142.51546,32.730803 143.131386,33.3685571 Z" id="Path-9"></path>
                    <path d="M326,94.7553099 C326,92.6813095 327.582912,91 329.535534,91 C331.488155,91 331.488155,139 329.535534,139 C327.582912,139 326,137.31869 326,135.24469 L326,94.7553099 Z" id="Path-10"></path>
                    <path d="M316.816457,51.4408987 C314.988961,51.1101326 313.747539,49.1872099 314.043664,47.1459305 C314.339789,45.1046512 316.061325,43.7180062 317.888821,44.0487723 L375.18282,54.4186498 C378.498408,55.0187517 379.051227,60.0871158 375.961621,61.5588623 C335.3175,79.7048912 314.753359,88.1438552 314.269195,86.8757544 C313.542951,84.9736033 344.55163,70.2519062 362.683944,59.7426446 C351.561315,57.8675495 336.272152,55.1003009 316.816457,51.4408987 Z" id="Path-11"></path>
                    <path d="M396.006463,74.2434548 C400.163169,74.6084419 404.05935,75.7188667 407.463961,77.4928369 C407.547696,71.1898922 407.919478,63.636069 408.567102,54.7807549 L390.972958,74.1856681 C392.615324,74.0759012 394.299993,74.093615 396.006463,74.2434548 Z M395.46991,81.7881931 C386.541976,81.0042595 378.899922,84.7102863 377.039012,90.727218 C375.837106,94.6133722 381.967443,98.2453249 393.061486,99.2202891 C398.129438,99.6656696 403.298057,99.39304 406.871629,98.5305326 C407.804929,98.3052739 408.57527,98.0497619 409.140329,97.8016379 C408.307989,95.1785983 407.787969,91.3604562 407.567727,86.2951992 C404.424385,83.7990641 400.230443,82.2062004 395.46991,81.7881931 Z M414.028428,103.416077 C412.653827,104.541472 410.732201,105.343493 408.317353,105.926334 C404.042634,106.958068 398.217688,107.265317 392.524478,106.764987 C386.238544,106.212568 380.614999,104.746385 376.644053,102.393775 C371.290829,99.2222277 368.753404,94.230673 370.597689,88.2674991 C372.539443,81.9891731 378.69065,77.6118453 385.08961,75.5187434 C384.511451,74.5371899 392.9442,63.4006538 410.387858,42.109135 C412.650228,39.6139236 416.481838,41.6311756 416.176866,45.1569116 C414.777968,61.3293883 414.163562,73.9168516 414.267539,82.6451447 C417.111773,85.7252115 419.109689,89.568341 419.931058,94.057477 C420.305781,96.1054956 419.115408,98.1032851 417.272287,98.5196649 C416.987585,98.583982 416.703961,98.6068042 416.426495,98.5918679 C416.430714,100.454252 415.53904,102.179329 414.028428,103.416077 Z" id="Path-12"></path>
                    <path d="M448.666196,51.5283356 C444.516319,55.1932776 440.941376,67.4637101 440.751126,79.3847981 C440.553305,91.7802717 443.728688,98.5267125 448.786385,97.4778569 C457.297327,95.7128736 468.716158,93.4558874 483.045996,90.7061923 C484.880137,90.3542463 486.627506,91.6973774 486.948855,93.7061597 C487.270203,95.7149419 486.043842,97.6286903 484.209701,97.9806363 C469.907634,100.725003 458.516997,102.976416 450.040909,104.734171 C444.302925,105.924104 439.724477,103.06118 437.01701,97.3088782 C434.874264,92.7563851 433.894507,86.4280361 434.00897,79.2557334 C434.237881,64.9121945 438.608693,50.2465638 445.089917,45.2361301 C447.706049,43.2136789 450.726595,43.7731618 453.401162,46.1843737 C455.388832,47.9763253 457.421723,50.9387326 459.624795,55.1265711 C460.554387,56.8936406 460.000017,59.1514705 458.386574,60.1695754 C456.773131,61.1876803 454.711594,60.5805245 453.782002,58.813455 C451.948132,55.3274349 450.351021,53.0000639 449.11563,51.8863172 C448.94685,51.7341565 448.796072,51.6154761 448.666196,51.5283356 Z" id="Path-16"></path>
                    <path d="M536.422818,101.855129 C538.164911,101.123381 540.114873,102.088149 540.778178,104.009999 C541.441484,105.931849 540.566953,108.083015 538.824859,108.814763 C530.24001,112.420739 519.10894,115.191202 509.569998,115.843845 C497.458409,116.672505 488.4173,114.250366 484.174548,107.444992 C483.911136,107.022479 483.729672,106.544497 483.64153,106.041003 C482.791066,101.182907 482.146158,92.8306808 481.702507,83.4423242 C467.615408,87.9806854 460.385852,89.5958188 460.013838,88.2877245 C459.641824,86.9796303 466.770521,83.2114778 481.39993,76.9832671 C481.107843,67.9193076 480.963157,57.1735998 480.963157,44.7307545 C480.963157,41.5360656 484.370489,39.8246973 486.554641,41.9223729 L513.448962,67.7518793 C515.439161,69.663281 514.760836,73.2416192 512.243115,74.1130322 L488.357568,81.1389288 C488.76114,90.5699846 489.352905,98.9550743 490.128585,103.787629 C495.852094,111.184722 518.221223,109.500517 536.422818,101.855129 Z M504.467158,68.9994264 L487.736299,52.9309852 C487.782371,61.0082017 487.898645,68.2562505 488.084174,74.6697711 L504.467158,68.9994264 Z" id="Path-17"></path>
                </g>
            </g>
            <path d="M209.051,386.236 L225.983,386.236 C228.030344,386.236 230.174489,386.471164 232.4155,386.9415 C234.656511,387.411836 236.703824,388.227994 238.5575,389.39 C240.411176,390.552006 241.932827,392.142823 243.1225,394.1625 C244.312173,396.182177 244.907,398.713651 244.907,401.757 C244.907,404.413013 244.422838,406.709324 243.4545,408.646 C242.486162,410.582676 241.185841,412.173494 239.5535,413.4185 C237.921159,414.663506 236.039844,415.59033 233.9095,416.199 C231.779156,416.80767 229.552012,417.112 227.228,417.112 L214.529,417.112 L214.529,445 L209.051,445 L209.051,386.236 Z M214.529,412.132 L226.979,412.132 C228.528341,412.132 230.049993,411.952168 231.544,411.5925 C233.038007,411.232832 234.365994,410.651837 235.528,409.8495 C236.690006,409.047163 237.630663,407.982007 238.35,406.654 C239.069337,405.325993 239.429,403.693676 239.429,401.757 C239.429,399.875657 239.055504,398.271007 238.3085,396.943 C237.561496,395.614993 236.593173,394.522171 235.4035,393.6645 C234.213827,392.806829 232.844341,392.184335 231.295,391.797 C229.745659,391.409665 228.196341,391.216 226.647,391.216 L214.529,391.216 L214.529,412.132 Z M302.171,412.132 L313.791,412.132 C316.668348,412.132 319.006158,411.772337 320.8045,411.053 C322.602842,410.333663 323.999995,409.448339 324.996,408.397 C325.992005,407.345661 326.669832,406.211339 327.0295,404.994 C327.389168,403.776661 327.569,402.670005 327.569,401.674 C327.569,400.677995 327.389168,399.571339 327.0295,398.354 C326.669832,397.136661 325.992005,396.002339 324.996,394.951 C323.999995,393.899661 322.602842,393.014337 320.8045,392.295 C319.006158,391.575663 316.668348,391.216 313.791,391.216 L302.171,391.216 L302.171,412.132 Z M296.693,386.236 L312.131,386.236 C312.905671,386.236 313.956993,386.263666 315.285,386.319 C316.613007,386.374334 318.051659,386.540332 319.601,386.817 C321.150341,387.093668 322.727325,387.53633 324.332,388.145 C325.936675,388.75367 327.375327,389.638994 328.648,390.801 C329.920673,391.963006 330.971996,393.429324 331.802,395.2 C332.632004,396.970676 333.047,399.128654 333.047,401.674 C333.047,404.496014 332.562838,406.819991 331.5945,408.646 C330.626162,410.472009 329.408841,411.952161 327.9425,413.0865 C326.476159,414.220839 324.857676,415.064664 323.087,415.618 C321.316324,416.171336 319.628675,416.558666 318.024,416.78 L335.122,445 L328.897,445 L312.38,417.112 L302.171,417.112 L302.171,445 L296.693,445 L296.693,386.236 Z M382.094,415.618 C382.094,411.135978 382.840993,407.013685 384.335,403.251 C385.829007,399.488315 387.903987,396.237514 390.56,393.4985 C393.216013,390.759486 396.411481,388.615341 400.1465,387.066 C403.881519,385.516659 407.989978,384.742 412.472,384.742 C416.954022,384.742 421.062481,385.516659 424.7975,387.066 C428.532519,388.615341 431.727987,390.759486 434.384,393.4985 C437.040013,396.237514 439.114993,399.488315 440.609,403.251 C442.103007,407.013685 442.85,411.135978 442.85,415.618 C442.85,420.100022 442.103007,424.236148 440.609,428.0265 C439.114993,431.816852 437.040013,435.081486 434.384,437.8205 C431.727987,440.559514 428.532519,442.689826 424.7975,444.2115 C421.062481,445.733174 416.954022,446.494 412.472,446.494 C407.989978,446.494 403.881519,445.733174 400.1465,444.2115 C396.411481,442.689826 393.216013,440.559514 390.56,437.8205 C387.903987,435.081486 385.829007,431.816852 384.335,428.0265 C382.840993,424.236148 382.094,420.100022 382.094,415.618 Z M387.572,415.618 C387.572,419.270018 388.152994,422.672984 389.315,425.827 C390.477006,428.981016 392.136989,431.719988 394.295,434.044 C396.453011,436.368012 399.067485,438.193993 402.1385,439.522 C405.209515,440.850007 408.653981,441.514 412.472,441.514 C416.290019,441.514 419.734485,440.850007 422.8055,439.522 C425.876515,438.193993 428.490989,436.368012 430.649,434.044 C432.807011,431.719988 434.466994,428.981016 435.629,425.827 C436.791006,422.672984 437.372,419.270018 437.372,415.618 C437.372,411.965982 436.791006,408.563016 435.629,405.409 C434.466994,402.254984 432.807011,399.516012 430.649,397.192 C428.490989,394.867988 425.876515,393.042007 422.8055,391.714 C419.734485,390.385993 416.290019,389.722 412.472,389.722 C408.653981,389.722 405.209515,390.385993 402.1385,391.714 C399.067485,393.042007 396.453011,394.867988 394.295,397.192 C392.136989,399.516012 390.477006,402.254984 389.315,405.409 C388.152994,408.563016 387.572,411.965982 387.572,415.618 Z M494.387,386.236 L512.564,386.236 C517.654692,386.236 521.970649,386.858494 525.512,388.1035 C529.053351,389.348506 531.999822,390.939324 534.3515,392.876 C536.703178,394.812676 538.556827,396.956822 539.9125,399.3085 C541.268173,401.660178 542.264163,403.914989 542.9005,406.073 C543.536837,408.231011 543.937999,410.181491 544.104,411.9245 C544.270001,413.667509 544.353,414.898663 544.353,415.618 C544.353,416.337337 544.270001,417.568491 544.104,419.3115 C543.937999,421.054509 543.536837,423.004989 542.9005,425.163 C542.264163,427.321011 541.268173,429.575822 539.9125,431.9275 C538.556827,434.279178 536.703178,436.423324 534.3515,438.36 C531.999822,440.296676 529.053351,441.887494 525.512,443.1325 C521.970649,444.377506 517.654692,445 512.564,445 L494.387,445 L494.387,386.236 Z M499.865,440.02 L511.153,440.02 C515.026353,440.02 518.65065,439.535838 522.026,438.5675 C525.40135,437.599162 528.333988,436.11901 530.824,434.127 C533.314012,432.13499 535.278326,429.603515 536.717,426.5325 C538.155674,423.461485 538.875,419.823354 538.875,415.618 C538.875,411.412646 538.155674,407.774515 536.717,404.7035 C535.278326,401.632485 533.314012,399.10101 530.824,397.109 C528.333988,395.11699 525.40135,393.636838 522.026,392.6685 C518.65065,391.700162 515.026353,391.216 511.153,391.216 L499.865,391.216 L499.865,440.02 Z M638.386,422.507 C638.386,425.661016 638.026337,428.676652 637.307,431.554 C636.587663,434.431348 635.384175,436.976656 633.6965,439.19 C632.008825,441.403344 629.795514,443.173993 627.0565,444.502 C624.317486,445.830007 620.95602,446.494 616.972,446.494 C612.98798,446.494 609.626514,445.830007 606.8875,444.502 C604.148486,443.173993 601.935175,441.403344 600.2475,439.19 C598.559825,436.976656 597.356337,434.431348 596.637,431.554 C595.917663,428.676652 595.558,425.661016 595.558,422.507 L595.558,386.236 L601.036,386.236 L601.036,421.096 C601.036,423.198677 601.229665,425.439655 601.617,427.819 C602.004335,430.198345 602.765161,432.411656 603.8995,434.459 C605.033839,436.506344 606.63849,438.193993 608.7135,439.522 C610.78851,440.850007 613.541316,441.514 616.972,441.514 C620.402684,441.514 623.15549,440.850007 625.2305,439.522 C627.30551,438.193993 628.910161,436.506344 630.0445,434.459 C631.178839,432.411656 631.939665,430.198345 632.327,427.819 C632.714335,425.439655 632.908,423.198677 632.908,421.096 L632.908,386.236 L638.386,386.236 L638.386,422.507 Z M741.798,435.787 C738.975986,439.605019 735.711352,442.343992 732.004,444.004 C728.296648,445.664008 724.285022,446.494 719.969,446.494 C715.486978,446.494 711.378519,445.733174 707.6435,444.2115 C703.908481,442.689826 700.713013,440.559514 698.057,437.8205 C695.400987,435.081486 693.326007,431.816852 691.832,428.0265 C690.337993,424.236148 689.591,420.100022 689.591,415.618 C689.591,411.135978 690.337993,407.013685 691.832,403.251 C693.326007,399.488315 695.400987,396.237514 698.057,393.4985 C700.713013,390.759486 703.908481,388.615341 707.6435,387.066 C711.378519,385.516659 715.486978,384.742 719.969,384.742 C723.95302,384.742 727.674149,385.447493 731.1325,386.8585 C734.590851,388.269507 737.62032,390.634983 740.221,393.955 L735.739,397.69 C733.912991,394.92332 731.575181,392.903673 728.7255,391.631 C725.875819,390.358327 722.957015,389.722 719.969,389.722 C716.150981,389.722 712.706515,390.385993 709.6355,391.714 C706.564485,393.042007 703.950011,394.867988 701.792,397.192 C699.633989,399.516012 697.974006,402.254984 696.812,405.409 C695.649994,408.563016 695.069,411.965982 695.069,415.618 C695.069,419.270018 695.649994,422.672984 696.812,425.827 C697.974006,428.981016 699.633989,431.719988 701.792,434.044 C703.950011,436.368012 706.564485,438.193993 709.6355,439.522 C712.706515,440.850007 716.150981,441.514 719.969,441.514 C721.463007,441.514 723.012325,441.334168 724.617,440.9745 C726.221675,440.614832 727.784826,440.061504 729.3065,439.3145 C730.828174,438.567496 732.28066,437.626839 733.664,436.4925 C735.04734,435.358161 736.264661,433.988675 737.316,432.384 L741.798,435.787 Z M804.872,391.216 L784.786,391.216 L784.786,386.236 L830.436,386.236 L830.436,391.216 L810.35,391.216 L810.35,445 L804.872,445 L804.872,391.216 Z M879.483,386.236 L884.961,386.236 L884.961,445 L879.483,445 L879.483,386.236 Z M937.245,415.618 C937.245,411.135978 937.991993,407.013685 939.486,403.251 C940.980007,399.488315 943.054987,396.237514 945.711,393.4985 C948.367013,390.759486 951.562481,388.615341 955.2975,387.066 C959.032519,385.516659 963.140978,384.742 967.623,384.742 C972.105022,384.742 976.213481,385.516659 979.9485,387.066 C983.683519,388.615341 986.878987,390.759486 989.535,393.4985 C992.191013,396.237514 994.265993,399.488315 995.76,403.251 C997.254007,407.013685 998.001,411.135978 998.001,415.618 C998.001,420.100022 997.254007,424.236148 995.76,428.0265 C994.265993,431.816852 992.191013,435.081486 989.535,437.8205 C986.878987,440.559514 983.683519,442.689826 979.9485,444.2115 C976.213481,445.733174 972.105022,446.494 967.623,446.494 C963.140978,446.494 959.032519,445.733174 955.2975,444.2115 C951.562481,442.689826 948.367013,440.559514 945.711,437.8205 C943.054987,435.081486 940.980007,431.816852 939.486,428.0265 C937.991993,424.236148 937.245,420.100022 937.245,415.618 Z M942.723,415.618 C942.723,419.270018 943.303994,422.672984 944.466,425.827 C945.628006,428.981016 947.287989,431.719988 949.446,434.044 C951.604011,436.368012 954.218485,438.193993 957.2895,439.522 C960.360515,440.850007 963.804981,441.514 967.623,441.514 C971.441019,441.514 974.885485,440.850007 977.9565,439.522 C981.027515,438.193993 983.641989,436.368012 985.8,434.044 C987.958011,431.719988 989.617994,428.981016 990.78,425.827 C991.942006,422.672984 992.523,419.270018 992.523,415.618 C992.523,411.965982 991.942006,408.563016 990.78,405.409 C989.617994,402.254984 987.958011,399.516012 985.8,397.192 C983.641989,394.867988 981.027515,393.042007 977.9565,391.714 C974.885485,390.385993 971.441019,389.722 967.623,389.722 C963.804981,389.722 960.360515,390.385993 957.2895,391.714 C954.218485,393.042007 951.604011,394.867988 949.446,397.192 C947.287989,399.516012 945.628006,402.254984 944.466,405.409 C943.303994,408.563016 942.723,411.965982 942.723,415.618 Z M1050.285,386.236 L1057.34,386.236 L1093.113,437.696 L1093.279,437.696 L1093.279,386.236 L1098.757,386.236 L1098.757,445 L1091.702,445 L1055.929,393.54 L1055.763,393.54 L1055.763,445 L1050.285,445 L1050.285,386.236 Z M1156.436,434.127 C1157.87467,436.617012 1159.74216,438.470661 1162.0385,439.688 C1164.33484,440.905339 1166.94932,441.514 1169.882,441.514 C1171.70801,441.514 1173.42333,441.237336 1175.028,440.684 C1176.63267,440.130664 1178.02983,439.356005 1179.2195,438.36 C1180.40917,437.363995 1181.34983,436.160507 1182.0415,434.7495 C1182.73317,433.338493 1183.079,431.747676 1183.079,429.977 C1183.079,427.929656 1182.65017,426.242007 1181.7925,424.914 C1180.93483,423.585993 1179.78667,422.493171 1178.348,421.6355 C1176.90933,420.777829 1175.29084,420.04467 1173.4925,419.436 C1171.69416,418.82733 1169.84051,418.21867 1167.9315,417.61 C1166.02249,417.00133 1164.16884,416.309671 1162.3705,415.535 C1160.57216,414.760329 1158.95367,413.750506 1157.515,412.5055 C1156.07633,411.260494 1154.92817,409.697343 1154.0705,407.816 C1153.21283,405.934657 1152.784,403.610681 1152.784,400.844 C1152.784,398.24332 1153.29583,395.933177 1154.3195,393.9135 C1155.34317,391.893823 1156.72649,390.206173 1158.4695,388.8505 C1160.21251,387.494827 1162.21832,386.47117 1164.487,385.7795 C1166.75568,385.08783 1169.13499,384.742 1171.625,384.742 C1174.83435,384.742 1177.80849,385.309161 1180.5475,386.4435 C1183.28651,387.577839 1185.65199,389.472987 1187.644,392.129 L1182.913,395.532 C1181.52966,393.595324 1179.91118,392.142838 1178.0575,391.1745 C1176.20382,390.206162 1174.00435,389.722 1171.459,389.722 C1169.68832,389.722 1168.00067,389.957164 1166.396,390.4275 C1164.79133,390.897836 1163.39417,391.589495 1162.2045,392.5025 C1161.01483,393.415505 1160.06034,394.56366 1159.341,395.947 C1158.62166,397.33034 1158.262,398.962657 1158.262,400.844 C1158.262,403.776681 1159.00899,406.031492 1160.503,407.6085 C1161.99701,409.185508 1163.86449,410.430495 1166.1055,411.3435 C1168.34651,412.256505 1170.78115,413.05883 1173.4095,413.7505 C1176.03785,414.44217 1178.47249,415.368994 1180.7135,416.531 C1182.95451,417.693006 1184.82199,419.31149 1186.316,421.3865 C1187.81001,423.46151 1188.557,426.324982 1188.557,429.977 C1188.557,432.633013 1188.059,434.984656 1187.063,437.032 C1186.067,439.079344 1184.72518,440.808493 1183.0375,442.2195 C1181.34982,443.630507 1179.39934,444.695663 1177.186,445.415 C1174.97266,446.134337 1172.67635,446.494 1170.297,446.494 C1166.42365,446.494 1162.85468,445.816173 1159.59,444.4605 C1156.32532,443.104827 1153.53101,440.822349 1151.207,437.613 L1156.436,434.127 Z" id="PRODUCTIONS"></path>
        </g>
    </g>
</svg>