<?xml version="1.0" encoding="UTF-8"?>
<svg viewBox="0 0 20 19" version="1.1" xmlns="http://www.w3.org/2000/svg" xmlns:xlink="http://www.w3.org/1999/xlink">
    <!-- Generator: Sketch 48.2 (47327) - http://www.bohemiancoding.com/sketch -->
    <title>Facebok</title>
    <desc>Created with Sketch.</desc>
    <defs></defs>
    <g id="Desktop" stroke="none" stroke-width="1" fill="none" fill-rule="evenodd" transform="translate(-941.000000, -6.000000)">
        <g id="Top-Menu" transform="translate(47.000000, 5.000000)" fill="#FFFFFF">
            <g id="Social" transform="translate(894.000000, 1.000000)">
                <path d="M13.0810951,19 L13.0810951,11.5666721 L15.664666,11.5666721 L16.024726,8.64139353 L13.0810951,8.64139353 L13.0810951,6.57528393 L13.0804451,6.57528393 C13.0877027,6.34448016 13.1907162,5.32632986 14.3974153,5.34706656 L16.1552531,5.34706656 L16.1552531,2.59208731 L13.5208795,2.59221777 C13.5208795,2.59221777 11.864647,2.55128439 10.8086228,3.91958248 C10.8086228,3.91958248 10.0894778,4.59557725 10.0785374,6.57528393 L10.0779957,6.57528393 L10.0779957,8.64139353 L7.47416869,8.64139353 L7.47416869,11.5666721 L10.0779957,11.5666721 L10.0779957,19 L3.91462293,19 C1.75274672,19 0,17.2533652 0,15.0975045 L0,3.90314347 C0,1.74793088 1.75274672,0 3.91462293,0 L15.1415826,0 C17.3037837,0 19.0555556,1.74793088 19.0555556,3.90314347 L19.0555556,15.0975045 C19.0555556,17.2533652 17.3037837,19 15.1415826,19 L13.0810951,19 Z" id="Facebok"></path>
            </g>
        </g>
    </g>
</svg>
