<?xml version="1.0" encoding="UTF-8"?>
<svg width="389px" height="359px" viewBox="0 0 389 359" version="1.1" xmlns="http://www.w3.org/2000/svg" xmlns:xlink="http://www.w3.org/1999/xlink">
    <!-- Generator: Sketch 48.2 (47327) - http://www.bohemiancoding.com/sketch -->
    <title>Cart Icon</title>
    <desc>Created with Sketch.</desc>
    <defs></defs>
    <g id="Symbols" stroke="none" stroke-width="1" fill="none" fill-rule="evenodd">
        <g id="Cart-Icon" fill="#000000">
            <g>
                <path d="M64.6529304,23.0351562 L11.6796875,23.0351562 C5.32841288,23.0351562 0.1796875,17.8864309 0.1796875,11.5351562 C0.1796875,5.18388163 5.32841288,0.03515625 11.6796875,0.03515625 L73.5,0.03515625 C78.7156311,0.03515625 83.2782027,3.54519002 84.6155367,8.58645429 L148.140038,248.050781 L337.773438,248.050781 C344.124712,248.050781 349.273438,253.199507 349.273438,259.550781 C349.273438,265.902056 344.124712,271.050781 337.773438,271.050781 L139.292969,271.050781 C134.077338,271.050781 129.514766,267.540747 128.177432,262.499483 L64.6529304,23.0351562 Z" id="Path" fill-rule="nonzero"></path>
                <path d="M90.4492188,84.5664062 C84.0979441,84.5664062 78.9492188,79.4176809 78.9492188,73.0664062 C78.9492188,66.7151316 84.0979441,61.5664062 90.4492188,61.5664062 L364.988281,61.5664062 C365.860877,61.5664062 366.714761,61.5946117 367.549777,61.6515653 C381.889532,62.6296314 390.857041,73.1128854 387.179406,86.1815974 C387.074032,86.5560491 386.949727,86.9249133 386.806971,87.2867672 L338.201502,210.489892 C336.468483,214.882677 332.226185,217.769531 327.503906,217.769531 L125.144531,217.769531 C118.793257,217.769531 113.644531,212.620806 113.644531,206.269531 C113.644531,199.918257 118.793257,194.769531 125.144531,194.769531 L319.678237,194.769531 L363.155012,84.5664062 L90.4492188,84.5664062 Z" id="Path-2" fill-rule="nonzero"></path>
                <circle id="Oval" cx="172.5" cy="321.5" r="36.5"></circle>
                <circle id="Oval-Copy" cx="301.5" cy="321.5" r="36.5"></circle>
            </g>
        </g>
    </g>
</svg>